<svg width="60" height="72" viewBox="0 0 60 72" fill="none" xmlns="http://www.w3.org/2000/svg">
<path d="M24 6C24 19.2548 13.2548 30 0 30C7.36043 30 14.2049 32.2089 19.9068 36C29.6069 29.5505 36 18.5218 36 6H24Z" fill="white"/>
<path opacity="0.8" d="M60 30C46.7452 30 36 19.2548 36 6C36 13.3604 33.7911 20.2049 30 25.9068C36.4495 35.6069 47.4782 42 60 42V30Z" fill="white"/>
<path opacity="0.6" d="M36 66C36 52.7452 46.7452 42 60 42C52.6396 42 45.7951 39.7911 40.0932 36C30.3931 42.4495 24 53.4782 24 66H36Z" fill="white"/>
<path opacity="0.4" d="M5.24529e-07 42C13.2548 42 24 52.7452 24 66C24 58.6396 26.2089 51.7951 30 46.0932C23.5505 36.3931 12.5218 30 0 30L5.24529e-07 42Z" fill="white"/>
</svg>
