<svg width="1920" height="1080" viewBox="0 0 1920 1080" fill="none" xmlns="http://www.w3.org/2000/svg">
<g opacity="0.05">
<path d="M1166.67 -153.333C1166.67 490.999 644.332 1013.33 0 1013.33C357.798 1013.33 690.518 1120.71 967.69 1305C1439.23 991.481 1750 455.367 1750 -153.333H1166.67Z" fill="white"/>
<path opacity="0.8" d="M2916.67 1013.33C2272.33 1013.33 1750 490.999 1750 -153.333C1750 204.465 1642.62 537.184 1458.33 814.357C1771.85 1285.89 2307.97 1596.67 2916.67 1596.67V1013.33Z" fill="white"/>
<path opacity="0.4" d="M2.5498e-05 1596.67C644.332 1596.67 1166.67 2119 1166.67 2763.33C1166.67 2405.54 1274.04 2072.82 1458.33 1795.64C1144.81 1324.11 608.7 1013.33 0 1013.33L2.5498e-05 1596.67Z" fill="white"/>
</g>
</svg>
