<svg width="282" height="72" viewBox="0 0 282 72" fill="none" xmlns="http://www.w3.org/2000/svg">
<path d="M24 6C24 19.2548 13.2548 30 0 30C7.36043 30 14.2049 32.2089 19.9068 36C29.6069 29.5505 36 18.5218 36 6H24Z" fill="#004EEB"/>
<path opacity="0.8" d="M60 30C46.7452 30 36 19.2548 36 6C36 13.3604 33.7911 20.2049 30 25.9068C36.4495 35.6069 47.4782 42 60 42V30Z" fill="#004EEB"/>
<path opacity="0.6" d="M36 66C36 52.7452 46.7452 42 60 42C52.6396 42 45.7951 39.7911 40.0932 36C30.3931 42.4495 24 53.4782 24 66H36Z" fill="#004EEB"/>
<path opacity="0.4" d="M5.24529e-07 42C13.2548 42 24 52.7452 24 66C24 58.6396 26.2089 51.7951 30 46.0932C23.5505 36.3931 12.5218 30 0 30L5.24529e-07 42Z" fill="#004EEB"/>
<path d="M93.888 54.768C89.12 54.768 85.44 53.712 82.848 51.6C80.256 49.488 78.944 46.544 78.912 42.768H86.784C86.816 44.88 87.424 46.352 88.608 47.184C89.824 48.016 91.68 48.432 94.176 48.432C98.048 48.432 99.984 47.12 99.984 44.496C99.984 43.344 99.552 42.496 98.688 41.952C97.856 41.376 96.24 40.864 93.84 40.416L91.056 39.888C83.44 38.608 79.632 35.04 79.632 29.184C79.632 26.08 80.784 23.616 83.088 21.792C85.424 19.968 88.72 19.056 92.976 19.056C97.52 19.056 100.992 20.016 103.392 21.936C105.792 23.856 107.072 26.608 107.232 30.192H99.552C99.456 28.528 98.896 27.312 97.872 26.544C96.88 25.776 95.296 25.392 93.12 25.392C89.632 25.392 87.888 26.544 87.888 28.848C87.888 30 88.304 30.88 89.136 31.488C90 32.096 91.52 32.608 93.696 33.024L96.576 33.552C100.704 34.288 103.696 35.488 105.552 37.152C107.44 38.784 108.384 41.056 108.384 43.968C108.384 47.456 107.104 50.128 104.544 51.984C101.984 53.84 98.432 54.768 93.888 54.768ZM125.491 28.656C128.115 28.656 130.195 29.456 131.731 31.056C133.299 32.624 134.083 34.864 134.083 37.776V54H126.595V39.264C126.595 36.448 125.267 35.04 122.611 35.04C121.267 35.04 120.147 35.488 119.251 36.384C118.355 37.28 117.907 38.544 117.907 40.176V54H110.419V29.232H117.715V32.736C119.635 30.016 122.227 28.656 125.491 28.656ZM152.227 28.656C155.555 28.656 158.195 29.824 160.147 32.16C162.067 34.496 163.027 37.648 163.027 41.616C163.027 45.584 162.067 48.736 160.147 51.072C158.195 53.408 155.555 54.576 152.227 54.576C148.931 54.576 146.435 53.28 144.739 50.688V54H137.443V19.824H144.931V32.256C146.627 29.856 149.059 28.656 152.227 28.656ZM150.163 48.576C151.827 48.576 153.123 47.968 154.051 46.752C154.979 45.504 155.443 43.728 155.443 41.424C155.443 36.912 153.683 34.656 150.163 34.656C146.611 34.656 144.835 36.976 144.835 41.616C144.835 46.256 146.611 48.576 150.163 48.576ZM172.846 54H165.358V19.824H172.846V54ZM200.114 54H192.578C192.194 53.264 191.986 52.336 191.954 51.216C190.29 53.456 187.65 54.576 184.034 54.576C181.314 54.576 179.122 53.904 177.458 52.56C175.826 51.216 175.01 49.36 175.01 46.992C175.01 42.384 178.242 39.808 184.706 39.264L188.594 38.928C190.738 38.704 191.81 37.888 191.81 36.48C191.81 34.816 190.546 33.984 188.018 33.984C186.482 33.984 185.394 34.224 184.754 34.704C184.146 35.152 183.778 36 183.65 37.248H176.21C176.658 31.52 180.61 28.656 188.066 28.656C195.426 28.656 199.106 31.2 199.106 36.288V49.44C199.106 51.52 199.442 53.04 200.114 54ZM186.29 49.536C187.986 49.536 189.33 49.104 190.322 48.24C191.314 47.344 191.81 46.016 191.81 44.256V42.432C191.362 42.912 190.53 43.232 189.314 43.392L186.242 43.728C183.842 43.984 182.642 44.976 182.642 46.704C182.642 47.568 182.962 48.256 183.602 48.768C184.242 49.28 185.138 49.536 186.29 49.536ZM202.542 19.824H218.094C222.03 19.824 225.118 20.864 227.358 22.944C229.598 24.992 230.718 27.792 230.718 31.344C230.718 34.896 229.598 37.712 227.358 39.792C225.118 41.84 222.03 42.864 218.094 42.864H210.654V54H202.542V19.824ZM210.654 36H217.566C219.166 36 220.398 35.6 221.262 34.8C222.158 34 222.606 32.848 222.606 31.344C222.606 29.84 222.158 28.688 221.262 27.888C220.366 27.088 219.134 26.688 217.566 26.688H210.654V36ZM255.334 54H247.798C247.414 53.264 247.206 52.336 247.174 51.216C245.51 53.456 242.87 54.576 239.254 54.576C236.534 54.576 234.342 53.904 232.678 52.56C231.046 51.216 230.23 49.36 230.23 46.992C230.23 42.384 233.462 39.808 239.926 39.264L243.814 38.928C245.958 38.704 247.03 37.888 247.03 36.48C247.03 34.816 245.766 33.984 243.238 33.984C241.702 33.984 240.614 34.224 239.974 34.704C239.366 35.152 238.998 36 238.87 37.248H231.43C231.878 31.52 235.83 28.656 243.286 28.656C250.646 28.656 254.326 31.2 254.326 36.288V49.44C254.326 51.52 254.662 53.04 255.334 54ZM241.51 49.536C243.206 49.536 244.55 49.104 245.542 48.24C246.534 47.344 247.03 46.016 247.03 44.256V42.432C246.582 42.912 245.75 43.232 244.534 43.392L241.462 43.728C239.062 43.984 237.862 44.976 237.862 46.704C237.862 47.568 238.182 48.256 238.822 48.768C239.462 49.28 240.358 49.536 241.51 49.536ZM271.52 32.784L272.624 29.232H280.352L271.376 54.96C270.256 58.16 268.832 60.368 267.104 61.584C265.312 62.832 262.624 63.456 259.04 63.456C258.432 63.456 257.456 63.424 256.112 63.36V57.6H258.512C261.008 57.6 262.256 56.448 262.256 54.144C262.256 53.12 261.872 51.52 261.104 49.344L254 29.232H262.064L263.168 32.736C264.768 38.112 266.176 43.312 267.392 48.336C268.64 43.12 270.016 37.936 271.52 32.784Z" fill="#181D27"/>
</svg>
